<svg xmlns="http://www.w3.org/2000/svg" version="1.1" xmlns:xlink="http://www.w3.org/1999/xlink" xmlns:svgjs="http://svgjs.com/svgjs" width="512" height="512" x="0" y="0" viewBox="0 0 64 64" style="enable-background:new 0 0 512 512" xml:space="preserve"><g><path d="M15.014 23.004c.031 0 .057-.015.087-.018h14.818c.03.003.056.018.087.018 1.654 0 3-1.346 3-3s-1.346-3-3-3c-.062 0-.115.024-.175.035H15.188c-.06-.011-.113-.035-.175-.035-1.654 0-3 1.346-3 3s1.346 3 3.001 3zm-.085-3.983c.03.003.058.018.089.018h14.986c.031 0 .058-.015.088-.018.51.046.914.461.914.982a.995.995 0 0 1-.957.991c-.016-.001-.029-.009-.045-.009H15.018c-.016 0-.029.009-.045.009a.995.995 0 0 1-.959-.991c0-.521.405-.937.915-.982z" fill="#ffffff" data-original="#000000"></path><path d="M15.016 26.008c.018 0 .031-.009.049-.01h14.891c.018.001.031.01.049.01 3.311 0 6.004-2.693 6.004-6.004S33.314 14 30.004 14c-.048 0-.09.021-.136.027H15.151c-.046-.006-.088-.027-.135-.027-3.311 0-6.004 2.693-6.004 6.004s2.693 6.004 6.004 6.004zm-.089-9.999c.031.003.059.019.091.019h14.986c.032 0 .059-.016.09-.019a4.004 4.004 0 0 1 3.914 3.995 4.007 4.007 0 0 1-3.972 4.001c-.011-.001-.021-.007-.032-.007H15.018c-.012 0-.021.006-.033.007a4.008 4.008 0 0 1-3.973-4.001 4.003 4.003 0 0 1 3.915-3.995z" fill="#ffffff" data-original="#000000"></path><path d="M15.016 29.01H30.004c4.966 0 9.006-4.04 9.006-9.006s-4.04-9.006-9.006-9.006c-.031 0-.057.015-.087.018H15.103c-.03-.003-.056-.018-.087-.018-4.966 0-9.006 4.04-9.006 9.006s4.04 9.006 9.006 9.006zm-.069-16.008c.024.001.045.014.07.014h14.986c.024 0 .045-.013.069-.014 3.831.037 6.937 3.162 6.937 7.002a7.014 7.014 0 0 1-7.006 7.006H15.016a7.014 7.014 0 0 1-7.006-7.006c0-3.84 3.106-6.965 6.937-7.002z" fill="#ffffff" data-original="#000000"></path><path d="M14.966 32.011c.019.001.033.011.052.011h14.986c.019 0 .033-.01.052-.011 6.599-.028 11.958-5.402 11.958-12.007 0-6.623-5.388-12.012-12.01-12.012-.021 0-.038.011-.059.012H15.076c-.021-.001-.038-.012-.059-.012-6.623 0-12.012 5.389-12.012 12.012.001 6.604 5.362 11.978 11.961 12.007zm.005-22.017c.017.001.03.01.047.01h14.986c.017 0 .03-.009.047-.01 5.498.025 9.963 4.505 9.963 10.01 0 5.52-4.49 10.01-10.01 10.01-.014 0-.025.007-.039.008H15.057c-.014-.001-.025-.008-.039-.008-5.521 0-10.012-4.49-10.012-10.01 0-5.505 4.467-9.984 9.965-10.01z" fill="#ffffff" data-original="#000000"></path><path d="M30.004 4.992H15.018C6.741 4.992.006 11.726.006 20.004v23.975c0 8.238 6.672 14.942 14.896 15.006.04.005.075.023.116.023h32.973a1 1 0 0 0 1-1v-7.006h14.003a1 1 0 0 0 1-1v-7.961a1 1 0 0 0-1-1H48.991v-7.008l-.002-.009.002-.009a1 1 0 0 0-1-1h-2.976V20.004c.001-8.277-6.734-15.012-15.011-15.012zm-14.986 2h14.986c7.175 0 13.012 5.837 13.012 13.012 0 7.144-5.787 12.956-12.919 13.007-.032-.003-.06-.019-.093-.019H15.018c-.033 0-.061.016-.093.019-7.132-.051-12.919-5.864-12.919-13.007 0-7.175 5.837-13.012 13.012-13.012zm28.911 28.024c.03.003.056.018.087.018s.057-.015.087-.018h2.889v21.992H15.994V34.992h13.894c.04.005.075.023.116.023h13.925zM2.006 43.979V27.458c2.432 4.229 6.857 7.157 11.988 7.506v21.975c-6.697-.526-11.988-6.131-11.988-12.96zm59.988-.938v5.961H48.991v-5.961zM43.016 33.016h-5.557a15.094 15.094 0 0 0 5.557-5.558z" fill="#ffffff" data-original="#000000"></path><path d="M20.996 46.004c0 2.757 2.243 5 5 5 .019 0 .035-.01.053-.011h10.889c.02.001.035.011.054.011 2.757 0 5-2.243 5-5s-2.243-5-5-5H25.996c-2.757 0-5 2.243-5 5zm18.995 0A3 3 0 0 1 37.026 49c-.013 0-.022-.007-.035-.007H25.996c-.013 0-.023.007-.035.007a3.001 3.001 0 0 1-2.965-2.996c0-1.654 1.346-3 3-3h10.995c1.655 0 3 1.346 3 3z" fill="#ffffff" data-original="#000000"></path><path d="M25.996 45.004a1 1 0 1 0 0 2h10.995a1 1 0 1 0 0-2z" fill="#ffffff" data-original="#000000"></path></g></svg>