<svg xmlns="http://www.w3.org/2000/svg" version="1.1" xmlns:xlink="http://www.w3.org/1999/xlink" xmlns:svgjs="http://svgjs.com/svgjs" width="512" height="512" x="0" y="0" viewBox="0 0 512 512" style="enable-background:new 0 0 512 512" xml:space="preserve" class=""><g><path d="M263.07 305.93c-3.9-3.91-10.24-3.91-14.14 0-3.91 3.9-3.91 10.24 0 14.14 3.9 3.91 10.24 3.91 14.14 0 3.91-3.9 3.91-10.24 0-14.14zM263.07 368.93c-3.9-3.91-10.24-3.91-14.14 0-3.91 3.9-3.91 10.24 0 14.14 3.9 3.91 10.24 3.91 14.14 0 3.91-3.9 3.91-10.24 0-14.14zM263.07 431.93c-3.9-3.91-10.24-3.91-14.14 0-3.91 3.9-3.91 10.24 0 14.14 3.9 3.91 10.24 3.91 14.14 0 3.91-3.9 3.91-10.24 0-14.14z" fill="#ffffff" data-original="#000000" class=""></path><path d="M366 166.52c0-36.789-18.478-71.194-48.984-91.531L306 67.647V10c0-5.522-4.478-10-10-10h-80c-5.523 0-10 4.478-10 10v57.647l-11.017 7.342C164.825 95.095 146 129.329 146 166.52V293c0 7.678 2.902 14.688 7.663 20-4.761 5.312-7.663 12.322-7.663 20v23c0 7.678 2.902 14.688 7.663 20-4.761 5.312-7.663 12.322-7.663 20v23c0 7.678 2.902 14.688 7.663 20-4.761 5.312-7.663 12.322-7.663 20v23c0 16.542 13.458 30 30 30h160c16.542 0 30-13.458 30-30v-23c0-7.678-2.902-14.688-7.663-20 4.761-5.312 7.663-12.322 7.663-20v-23c0-7.678-2.902-14.688-7.663-20 4.761-5.312 7.663-12.322 7.663-20v-23c0-7.678-2.902-14.688-7.663-20 4.761-5.312 7.663-12.322 7.663-20V166.52zM226 20h60v43h-60V20zm-19.925 71.631L219.026 83h73.947l12.95 8.63c11.956 7.971 21.879 18.833 28.83 31.37H177.247c6.951-12.536 16.873-23.399 28.828-31.369zM346 293c0 5.514-4.486 10-10 10h-40c-5.522 0-10 4.478-10 10s4.478 10 10 10h40c5.514 0 10 4.486 10 10v23c0 5.514-4.486 10-10 10h-40c-5.522 0-10 4.478-10 10s4.478 10 10 10h40c5.514 0 10 4.486 10 10v23c0 5.514-4.486 10-10 10h-40c-5.522 0-10 4.478-10 10s4.478 10 10 10h40c5.514 0 10 4.486 10 10v23c0 5.514-4.486 10-10 10H176c-5.514 0-10-4.486-10-10v-23c0-5.514 4.486-10 10-10h40c5.523 0 10-4.478 10-10s-4.477-10-10-10h-40c-5.514 0-10-4.486-10-10v-23c0-5.514 4.486-10 10-10h40c5.523 0 10-4.478 10-10s-4.477-10-10-10h-40c-5.514 0-10-4.486-10-10v-23c0-5.514 4.486-10 10-10h40c5.523 0 10-4.478 10-10s-4.477-10-10-10h-40c-5.514 0-10-4.486-10-10v-10h180v10zm0-30H166v-96.48a89.637 89.637 0 0 1 3.143-23.52h173.715A89.667 89.667 0 0 1 346 166.52V263z" fill="#ffffff" data-original="#000000" class=""></path><path d="M264.228 167.316a10.001 10.001 0 0 0-16.456 0C241.227 176.792 226 200.213 226 213c0 16.542 13.458 30 30 30s30-13.458 30-30c0-12.787-15.227-36.208-21.772-45.684zM256 223c-5.514 0-10-4.486-10-9.988.081-3.058 4.241-11.774 10.002-21.48 5.756 9.695 9.913 18.407 9.998 21.476-.004 5.511-4.488 9.992-10 9.992z" fill="#ffffff" data-original="#000000" class=""></path></g></svg>