<svg xmlns="http://www.w3.org/2000/svg" version="1.1" xmlns:xlink="http://www.w3.org/1999/xlink" xmlns:svgjs="http://svgjs.com/svgjs" width="512" height="512" x="0" y="0" viewBox="0 0 64 64" style="enable-background:new 0 0 512 512" xml:space="preserve" class=""><g><path d="M15.09 11.74c2.532-.973 5.635-1.414 8.1-.37.637.417.562.115.6-.5l.09-1.85c.062-3.173-5.046-2.479-6.79-.8a7.59 7.59 0 0 0-2.36 3.63c.01 0 .35-.116.36-.11zM19.9 22.33c-.493-.168-.775.276-1.29.2a1.497 1.497 0 0 1 .14-2.99 1.472 1.472 0 0 1 1.24.78 33.504 33.504 0 0 0 3.86.27c-.04-1.5-.06-3.22-.06-5.19a2.355 2.355 0 0 0-.45-1.39c-1.771-2.162-5.688-1.07-8.11-.22.187 2.762.811 11.872 1.01 14.79a6.942 6.942 0 0 0 2.33 4.89c9.718 8.903 23.677 13.151 36.58 10a87.326 87.326 0 0 1-9.25-2.52 16.425 16.425 0 0 1-3.04 2.22.998.998 0 0 1-1.17-1.57 18.484 18.484 0 0 0 1.97-1.41c-.48-.18-.98-.36-1.49-.55l-2.44-1.27c-.65.62-1.16 1.1-1.56 1.46-.956.926-1.181.778-1.38 1.53a1.495 1.495 0 1 1-1.03-2.09c.66-.546 1.097-.945 2.08-1.87l-4.79-2.49a39.773 39.773 0 0 1-3.02 2.71 1.493 1.493 0 1 1-1.18-1.61c.702-.538 1.592-1.382 2.32-2.07l-3.77-1.95c-.899.212-2.3 1.419-3.38 1.93a1.472 1.472 0 0 1-1.11 1.3 1.499 1.499 0 0 1-1.2-2.7 1.466 1.466 0 0 1 1.12-.21c.82-.496 1.647-.976 2.58-1.55a4.776 4.776 0 0 1-.88-2.22c-.62.06-3.899.115-4.72.07a1.514 1.514 0 0 1-2.58-1.12 1.497 1.497 0 0 1 1.57-1.42 1.475 1.475 0 0 1 1.08.54 34.167 34.167 0 0 0 4.34-.04c-.652-5.066 1.003-3.641-4.32-4.24zM29.29 42.85c-.95-.42-1.88-.88-2.8-1.37-1.956 2.566-5.844 7.636-7.75 10.15 1.1.01 2.33.05 3.59.13l6.96-8.91z" fill="#ffffff" data-original="#000000"></path><path d="M6.04 37.6c-.696 1.796-4.074 11.628 1.3 12.5.62.15 1.55.37 2.67.6.02-.2 8.872-10.74 10.71-12.9-3.051-2.195-6.456-4.994-6.47-9.11 0 0-.909-13.263-.98-14.28l-7.14 2.27a2.072 2.072 0 0 0-1.41 2.42l2.3 11.01a10.395 10.395 0 0 1-.27 5.25zM57.51 44.35c-.434.224-1.686 1.205-2.17 1.19a42.361 42.361 0 0 1-24.14-1.89c-1.732 2.26-4.755 6.054-6.47 8.28 3.936.31 6.4.905 7.98 1.95a42.761 42.761 0 0 0 4.29.48c6.722.406 13.768.09 20.94-3.11 2.437-1.28 1.163-5.806-.43-6.9zM22.36 38.97a81792.79 81792.79 0 0 0-10.29 12.11 39.39 39.39 0 0 0 4.19.49c1.953-2.56 6.456-8.45 8.47-11.08-.8-.48-1.59-.98-2.37-1.52zM30.88 55.13c-3.682-1.453-9.422-1.409-13.8-1.52a50.491 50.491 0 0 1-9.84-1.48 7.292 7.292 0 0 1-1.97-.62l-.13 2.66c.18 1.695 1.675 2.695 15.37 3.19a49.77 49.77 0 0 0 7.05-.67c1.86-.25 3.89-.53 5.81-.69a3.883 3.883 0 0 1-2.49-.87z" fill="#ffffff" data-original="#000000"></path></g></svg>