<svg xmlns="http://www.w3.org/2000/svg" version="1.1" xmlns:xlink="http://www.w3.org/1999/xlink" xmlns:svgjs="http://svgjs.com/svgjs" width="512" height="512" x="0" y="0" viewBox="0 0 64 64" style="enable-background:new 0 0 512 512" xml:space="preserve" class=""><g><path d="M64 39a3 3 0 0 0-3-3h-1v-9A27.03 27.03 0 0 0 33 0h-2A27.03 27.03 0 0 0 4 27v9H3a2.993 2.993 0 0 0-1 5.816V59a5 5 0 0 0 10 0V41.816A2.993 2.993 0 0 0 11 36h-1v-9A21.006 21.006 0 0 1 21.522 8.286a14.992 14.992 0 1 0 11.813-4.218A.985.985 0 0 0 33 4h-2A23.026 23.026 0 0 0 8 27v9H6v-9A25.028 25.028 0 0 1 31 2h1a17 17 0 0 1 15.182 9.4l.008.016A16.992 16.992 0 1 1 15 19a1 1 0 0 0-2 0 19 19 0 1 0 37.7-3.281A20.787 20.787 0 0 1 54 27v9h-1a2.993 2.993 0 0 0-1 5.816V59a5 5 0 0 0 10 0V41.816A3 3 0 0 0 64 39ZM45 19A13 13 0 1 1 32 6a13.015 13.015 0 0 1 13 13ZM10 54H4V42h6Zm-3 8a3 3 0 0 1-3-3v-3h6v2H7a1 1 0 0 0 0 2h2.816A3 3 0 0 1 7 62Zm2-24h2a1 1 0 0 1 0 2H3a1 1 0 0 1 0-2h6Zm39.925-27.59a19.063 19.063 0 0 0-4.208-5.485A25.019 25.019 0 0 1 58 27v9h-2v-9a22.782 22.782 0 0 0-7.075-16.59ZM60 58h-6v-2h6Zm-3 4a3 3 0 0 1-2.816-2h5.632A3 3 0 0 1 57 62Zm4-22a1 1 0 0 0-1 1v13h-6V42h3a1 1 0 0 0 0-2h-4a1 1 0 0 1 0-2h8a1 1 0 0 1 0 2Z" data-name="Layer 18" fill="#ffffff" data-original="#000000" class=""></path></g></svg>