<svg xmlns="http://www.w3.org/2000/svg" version="1.1" xmlns:xlink="http://www.w3.org/1999/xlink" xmlns:svgjs="http://svgjs.com/svgjs" width="512" height="512" x="0" y="0" viewBox="0 0 45 60" style="enable-background:new 0 0 512 512" xml:space="preserve" class=""><g><g fill="#000" fill-rule="nonzero"><path d="M6 45.238V57a3 3 0 0 0 3 3h19a3 3 0 0 0 3-3V45.475C33.309 43.556 45 33.189 45 20c0-3.587-.9-5.957-2.687-7.042-1.439-.877-3.313-.856-5.575.03a11.911 11.911 0 0 0-2.524-7.182C29.347-.26 19.344-.022 18.445.011c-.8-.039-9.227-.289-14.454 4.83C1.183 7.592-.16 11.362 0 16.046c.051 1.565.386 3.108.987 4.554C1.164 27.967 2.19 38.094 6 45.238zM29 54H15v-4h14zm12.272-39.334C42.4 15.354 43 17.2 43 20c0 12.323-11.5 22.444-13.358 24H16a1 1 0 0 0 0 2h13v2H15a2 2 0 0 0-2 2v4a2 2 0 0 0 2 2h14v1a1 1 0 0 1-1 1H9a1 1 0 0 1-1-1V46h3a1 1 0 0 0 0-2H7.615c-3.009-5.844-4.1-13.908-4.473-19.853 3.477 4.275 9.8 7.391 16.408 7.391 6.707 0 13.93-3.176 16.392-12.264.37-1.342.622-2.714.751-4.1 1.493-.702 3.345-1.261 4.579-.508zM5.383 6.277C9.437 2.3 16.012 2 17.94 2c5.227 0 11.449.98 14.718 5.061 2.241 2.8 2.7 6.73 1.355 11.687C29.181 36.579 2.477 29.921 2 15.978c-.141-4.096 1-7.36 3.383-9.701z" fill="#ffffff" data-original="#000000" class=""></path><path d="M5.087 14.043a1 1 0 0 0 1.192-.76c1.107-5.006 5.443-6.625 8.885-7.1a1.001 1.001 0 1 0-.275-1.983c-4.071.565-9.207 2.523-10.563 8.651a1 1 0 0 0 .761 1.192zM24.819 33.427a1 1 0 0 0-1.392-.246L19 36.279l-4.427-3.1a1 1 0 0 0-1.146 1.638l3.829 2.683-3.829 2.681a1 1 0 1 0 1.146 1.638L19 38.721l4.427 3.1a1 1 0 1 0 1.146-1.638L20.744 37.5l3.829-2.681a1 1 0 0 0 .246-1.392z" fill="#ffffff" data-original="#000000" class=""></path></g></g></svg>