<svg xmlns="http://www.w3.org/2000/svg" version="1.1" xmlns:xlink="http://www.w3.org/1999/xlink" xmlns:svgjs="http://svgjs.com/svgjs" width="512" height="512" x="0" y="0" viewBox="0 0 512 512" style="enable-background:new 0 0 512 512" xml:space="preserve" class=""><g><path d="M366 50V30h-70V10h-70v40h-70v110l-30-40-50 20 8.435 101.216a167.478 167.478 0 0 0 46.556 102.565C144.146 357.373 162.287 365 181.203 365H386c29.677-8.903 50-36.218 50-67.201V50h-70zM171.661 388.709C174.552 375.161 186.589 365 201 365h170c16.569 0 30 13.431 30 30v77c0 16.569-13.431 30-30 30H201c-14.273 0-26.217-9.967-29.254-23.32M171 433.5h0" style="stroke-width:20;stroke-linecap:round;stroke-linejoin:round;stroke-miterlimit:10;" fill="none" stroke="#ffffff" stroke-width="20" stroke-linecap="round" stroke-linejoin="round" stroke-miterlimit="10" data-original="#000000"></path><path d="M249.25 365h5c37.831 0 68.5 30.668 68.5 68.5v0c0 37.831-30.668 68.5-68.5 68.5h-5" style="stroke-width:20;stroke-linecap:round;stroke-linejoin:round;stroke-miterlimit:10;" fill="none" stroke="#ffffff" stroke-width="20" stroke-linecap="round" stroke-linejoin="round" stroke-miterlimit="10" data-original="#000000"></path><path d="M401 413.5v40h-81.22c1.93-6.32 2.97-13.04 2.97-20s-1.04-13.68-2.97-20H401zM226 50v40M296 30v40M366 50v40M436 160v22.5c0 33.137-26.863 60-60 60H216c-33.137 0-60-26.863-60-60V160" style="stroke-width:20;stroke-linecap:round;stroke-linejoin:round;stroke-miterlimit:10;" fill="none" stroke="#ffffff" stroke-width="20" stroke-linecap="round" stroke-linejoin="round" stroke-miterlimit="10" data-original="#000000"></path><path d="M436 297.799c0-33.137-26.863-55.299-60-55.299H216c-33.137 0-60 26.863-60 60V360" style="stroke-width:20;stroke-linecap:round;stroke-linejoin:round;stroke-miterlimit:10;" fill="none" stroke="#ffffff" stroke-width="20" stroke-linecap="round" stroke-linejoin="round" stroke-miterlimit="10" data-original="#000000"></path><path d="M196 130h200" style="stroke-width:20;stroke-linecap:round;stroke-linejoin:round;stroke-miterlimit:10;stroke-dasharray:16,45,16,45,17,45;" fill="none" stroke="#ffffff" stroke-width="20" stroke-linecap="round" stroke-linejoin="round" stroke-miterlimit="10" stroke-dasharray="16,45,16,45,17,45" data-original="#000000"></path><path d="M282.75 433.5h0" style="stroke-width:20;stroke-linecap:round;stroke-linejoin:round;stroke-miterlimit:10;" fill="none" stroke="#ffffff" stroke-width="20" stroke-linecap="round" stroke-linejoin="round" stroke-miterlimit="10" data-original="#000000"></path></g></svg>