<svg xmlns="http://www.w3.org/2000/svg" version="1.1" xmlns:xlink="http://www.w3.org/1999/xlink" xmlns:svgjs="http://svgjs.com/svgjs" width="512" height="512" x="0" y="0" viewBox="0 0 682.667 682.667" style="enable-background:new 0 0 512 512" xml:space="preserve"><g><defs><clipPath id="a" clipPathUnits="userSpaceOnUse"><path d="M0 512h512V0H0Z" fill="#ffffff" data-original="#000000"></path></clipPath></defs><g clip-path="url(#a)" transform="matrix(1.33333 0 0 -1.33333 0 682.667)"><path d="M0 0h-79.346c-23.377 0-42.327 18.95-42.327 42.327v38.346c0 23.377 18.95 42.327 42.327 42.327H0c23.377 0 42.327-18.95 42.327-42.327V42.327C42.327 18.95 23.377 0 0 0Z" style="stroke-width:15;stroke-linecap:round;stroke-linejoin:round;stroke-miterlimit:10;stroke-dasharray:none;stroke-opacity:1" transform="translate(295.673 381.5)" fill="none" stroke="#ffffff" stroke-width="15" stroke-linecap="round" stroke-linejoin="round" stroke-miterlimit="10" stroke-dasharray="none" stroke-opacity="" data-original="#000000"></path><path d="M0 0c-6.797 0-12.327 5.53-12.327 12.327v38.346C-12.327 57.47-6.797 63 0 63h79.346c6.797 0 12.327-5.53 12.327-12.327V12.327C91.673 5.53 86.143 0 79.346 0Z" style="stroke-width:15;stroke-linecap:round;stroke-linejoin:round;stroke-miterlimit:10;stroke-dasharray:none;stroke-opacity:1" transform="translate(216.327 411.5)" fill="none" stroke="#ffffff" stroke-width="15" stroke-linecap="round" stroke-linejoin="round" stroke-miterlimit="10" stroke-dasharray="none" stroke-opacity="" data-original="#000000"></path><path d="M0 0a357.267 357.267 0 0 0-4.306 18.268" style="stroke-width:15;stroke-linecap:round;stroke-linejoin:round;stroke-miterlimit:10;stroke-dasharray:none;stroke-opacity:1" transform="translate(185.247 226.753)" fill="none" stroke="#ffffff" stroke-width="15" stroke-linecap="round" stroke-linejoin="round" stroke-miterlimit="10" stroke-dasharray="none" stroke-opacity="" data-original="#000000"></path><path d="M0 0v-14.188c0-15.919-14.676-28.825-32.781-28.825h-47.821c-18.105 0-32.781 12.906-32.781 28.825v45.961c0 22.737-2.203 45.415-6.577 67.79" style="stroke-width:15;stroke-linecap:round;stroke-linejoin:round;stroke-miterlimit:10;stroke-dasharray:none;stroke-opacity:1" transform="translate(312.691 96.077)" fill="none" stroke="#ffffff" stroke-width="15" stroke-linecap="round" stroke-linejoin="round" stroke-miterlimit="10" stroke-dasharray="none" stroke-opacity="" data-original="#000000"></path><path d="M0 0a352.354 352.354 0 0 0-2.335 40.482v35.593c0 15.92 14.676 28.825 32.78 28.825h99.44c18.104 0 32.78-12.905 32.78-28.825V40.482c0-31.878-4.332-63.641-12.904-94.615-8.573-30.974-12.905-62.738-12.905-94.616" style="stroke-width:15;stroke-linecap:round;stroke-linejoin:round;stroke-miterlimit:10;stroke-dasharray:none;stroke-opacity:1" transform="translate(175.835 276.6)" fill="none" stroke="#ffffff" stroke-width="15" stroke-linecap="round" stroke-linejoin="round" stroke-miterlimit="10" stroke-dasharray="none" stroke-opacity="" data-original="#000000"></path><path d="M0 0h-104.245c-9.145 0-16.558 7.413-16.558 16.559v12.447c0 9.144 7.413 16.558 16.558 16.558H0c9.145 0 16.558-7.414 16.558-16.558V16.559C16.558 7.413 9.145 0 0 0Z" style="stroke-width:15;stroke-linecap:round;stroke-linejoin:round;stroke-miterlimit:10;stroke-dasharray:none;stroke-opacity:1" transform="translate(308.123 7.5)" fill="none" stroke="#ffffff" stroke-width="15" stroke-linecap="round" stroke-linejoin="round" stroke-miterlimit="10" stroke-dasharray="none" stroke-opacity="" data-original="#000000"></path><path d="m0 0 2.409-40" style="stroke-width:15;stroke-linecap:round;stroke-linejoin:round;stroke-miterlimit:10;stroke-dasharray:none;stroke-opacity:1" transform="translate(200.126 330.254)" fill="none" stroke="#ffffff" stroke-width="15" stroke-linecap="round" stroke-linejoin="round" stroke-miterlimit="10" stroke-dasharray="none" stroke-opacity="" data-original="#000000"></path><path d="m0 0-2.409-40" style="stroke-width:15;stroke-linecap:round;stroke-linejoin:round;stroke-miterlimit:10;stroke-dasharray:none;stroke-opacity:1" transform="translate(308.126 330.254)" fill="none" stroke="#ffffff" stroke-width="15" stroke-linecap="round" stroke-linejoin="round" stroke-miterlimit="10" stroke-dasharray="none" stroke-opacity="" data-original="#000000"></path></g></g></svg>