<svg xmlns="http://www.w3.org/2000/svg" version="1.1" xmlns:xlink="http://www.w3.org/1999/xlink" xmlns:svgjs="http://svgjs.com/svgjs" width="512" height="512" x="0" y="0" viewBox="0 0 512 512" style="enable-background:new 0 0 512 512" xml:space="preserve" class=""><g><path d="M256 312c-75 0-136-61-136-136V71c0-11 9-20 20-20 11.1 0 20 9 20 20v105c0 52.9 43.1 96 96 96s96-43.1 96-96V71c0-11 9-20 20-20 11.1 0 20 9 20 20v105c0 75-61 136-136 136zM140 61c-5.5 0-10 4.5-10 10v105c0 69.5 56.5 126 126 126s126-56.5 126-126V71c0-5.5-4.5-10-10-10s-10 4.5-10 10v105c0 58.4-47.6 106-106 106s-106-47.6-106-106V71c0-5.5-4.5-10-10-10z" fill="#ffffff" data-original="#000000"></path><path d="M256 461c-53.3 0-99.4-13.9-137.1-41.4-31.8-23.2-57.8-56.2-77.3-98C4.1 241.1 0 147.5 0 111V71.1C0 60 9 51 20.1 51 31 51 40 59.9 40.2 70.8c1.5 97.4 18.4 168.4 50.2 211.1 24.6 33 57.3 49.1 100.1 49.1 37.3 0 57.3 22.4 65.5 34.9 8.2-12.5 28.2-34.9 65.5-34.9 42.8 0 75.5-16.1 100.2-49.1 31.8-42.7 48.7-113.7 50.2-211.1.2-10.9 9.2-19.8 20.1-19.8 11 0 20 9 20 20.1V111c0 36.5-4.1 130.1-41.6 210.6-19.5 41.9-45.5 74.9-77.3 98C355.4 447.1 309.3 461 256 461zM20.1 61C14.5 61 10 65.5 10 71.1V111c0 35.8 4 127.7 40.6 206.4C92 406 161.1 451 256 451s164-45 205.4-133.6C498 238.7 502 146.8 502 111V71.1c0-5.5-4.5-10.1-10.1-10.1-5.5 0-10 4.5-10.1 9.9C479.1 250.1 425.1 341 321.5 341c-43.8 0-60.3 35.5-60.9 37-.8 1.8-2.6 3-4.6 3-2 0-3.8-1.2-4.6-3-.7-1.5-17.1-37-60.9-37C86.9 341 32.9 250.1 30.1 70.9c-.1-5.4-4.6-9.9-10-9.9z" fill="#ffffff" data-original="#000000"></path><path d="M35 66h90v10H35zM387 66h90v10h-90zM85 136H75c-13.8 0-25-11.2-25-25s11.2-25 25-25h10c13.8 0 25 11.2 25 25s-11.2 25-25 25zM75 96c-8.3 0-15 6.7-15 15s6.7 15 15 15h10c8.3 0 15-6.7 15-15s-6.7-15-15-15zM85 200H75c-13.8 0-25-11.2-25-25s11.2-25 25-25h10c13.8 0 25 11.2 25 25s-11.2 25-25 25zm-10-40c-8.3 0-15 6.7-15 15s6.7 15 15 15h10c8.3 0 15-6.7 15-15s-6.7-15-15-15zM78.3 266.7c-3 0-6.1-.6-8.9-1.6l3.6-9.3c3.4 1.3 7.1 1.3 10.5.1l9.4-3.4c7.8-2.8 11.8-11.5 9-19.2-1.4-3.8-4.1-6.8-7.8-8.5-3.6-1.7-7.7-1.9-11.5-.5l-9.4 3.4c-4 1.5-7.2 4.5-8.8 8.5l-9.3-3.7c2.6-6.6 8-11.7 14.6-14.1l9.4-3.4c6.3-2.3 13.1-2 19.1.8 6.1 2.8 10.6 7.8 12.9 14.1 4.7 13-2 27.3-14.9 32l-9.4 3.4c-2.7.9-5.6 1.4-8.5 1.4zM124.1 318.2l-7.1-7.1 7.1-7.1c5.8-5.8 5.8-15.4 0-21.2s-15.4-5.8-21.2 0l-7.1 7.1-7.1-7.1 7.1-7.1c9.7-9.7 25.6-9.7 35.4 0 9.7 9.7 9.7 25.6 0 35.4zM437 136h-10c-13.8 0-25-11.2-25-25s11.2-25 25-25h10c13.8 0 25 11.2 25 25s-11.2 25-25 25zm-10-40c-8.3 0-15 6.7-15 15s6.7 15 15 15h10c8.3 0 15-6.7 15-15s-6.7-15-15-15zM437 200h-10c-13.8 0-25-11.2-25-25s11.2-25 25-25h10c13.8 0 25 11.2 25 25s-11.2 25-25 25zm-10-40c-8.3 0-15 6.7-15 15s6.7 15 15 15h10c8.3 0 15-6.7 15-15s-6.7-15-15-15zM433.7 266.7c-2.9 0-5.8-.5-8.6-1.5l-9.4-3.4c-13-4.7-19.7-19.1-14.9-32 2.3-6.3 6.9-11.3 12.9-14.1 6.1-2.8 12.8-3.1 19.1-.8l9.4 3.4c6.7 2.4 12 7.6 14.6 14.1l-9.3 3.7c-1.6-3.9-4.8-7-8.8-8.5l-9.4-3.4c-3.8-1.4-7.8-1.2-11.5.5-3.6 1.7-6.4 4.7-7.8 8.5-2.8 7.8 1.2 16.4 9 19.2l9.4 3.4c3.4 1.2 7.1 1.2 10.5-.1l3.6 9.3c-2.7 1.2-5.8 1.7-8.8 1.7zM387.9 318.2l-7.1-7.1c-9.7-9.7-9.7-25.6 0-35.4 9.7-9.7 25.6-9.7 35.4 0l7.1 7.1-7.1 7.1-7.1-7.1c-5.8-5.8-15.4-5.8-21.2 0s-5.8 15.4 0 21.2l7.1 7.1z" fill="#ffffff" data-original="#000000"></path></g></svg>