<svg xmlns="http://www.w3.org/2000/svg" version="1.1" xmlns:xlink="http://www.w3.org/1999/xlink" xmlns:svgjs="http://svgjs.com/svgjs" width="512" height="512" x="0" y="0" viewBox="0 0 512.008 512.008" style="enable-background:new 0 0 512 512" xml:space="preserve" class=""><g><circle cx="257.198" cy="176.761" r="8.177" fill="#ffffff" data-original="#000000" class=""></circle><circle cx="191.785" cy="176.761" r="8.177" fill="#ffffff" data-original="#000000" class=""></circle><path d="M224.492 250.35c13.205 0 25.078-7.334 30.981-19.15l.859-1.725-14.628-7.318-.859 1.725c-3.115 6.239-9.379 10.106-16.353 10.106s-13.238-3.876-16.353-10.106l-.859-1.725-14.628 7.318.859 1.725c5.903 11.816 17.775 19.15 30.981 19.15zM216.315 168.584h16.353v32.706h-16.353z" fill="#ffffff" data-original="#000000" class=""></path><path d="M454.785 361.249 407.271 232.73a22.504 22.504 0 0 0-11.079-12.641v-20.196c0-13.524-8.667-24.963-20.703-29.329l-7.711-23.132 30.793 7.694-4.096-20.499c-3.884-19.428-17.04-35.699-34.71-43.818l15.666-23.508-11.627-5.822c-15.217-7.612-33.287-9.362-49.64-4.881l15.061-30.131-47.498 9.501V0l-39.272 19.632-17.963-17.964-17.964 17.964L167.256 0v35.961l-47.498-9.493 15.061 30.131c-16.353-4.473-34.407-2.723-49.648 4.89l-11.619 5.814 15.666 23.508c-17.67 8.119-30.826 24.391-34.71 43.818l-4.105 20.499 29.73-7.433-16.353 40.883 23.197-5.797c-.875 3.32-1.488 6.746-1.488 10.343 0 22.543 18.34 40.883 40.883 40.883h8.765c2.576 19.616 13.598 36.705 29.648 47.162-22.903 8.88-41.414 25.928-52.297 47.449-27.539 23.377-43.36 57.277-43.36 93.45v89.942h261.65v-69.967l44.971 16.86a63.346 63.346 0 0 0 22.306 4.047h.008c16.975 0 32.927-6.607 44.93-18.61s18.61-27.956 18.61-44.938a109.514 109.514 0 0 0-6.818-38.153zm-74.939-142.632c-9.411 2.706-16.353 11.292-16.353 21.553v40.956c0 10.147 4.031 19.534 10.891 26.468l-44.268 33.197c-6.598 4.947-14.775 7.67-23.017 7.67a38.323 38.323 0 0 1-36.394-26.23l-5.323-15.977v-16.639a66.208 66.208 0 0 0 16.353-6.958v33.099h16.353V198.167c0-3.565 4.113-6.124 7.318-4.522l8.25 4.121c12.461 6.222 28.618 3.59 38.463-6.247l2.216-2.216c2.829-2.821 6.582-4.383 10.572-4.383 8.242 0 14.955 6.705 14.955 14.955v18.741h-.016zM353.06 344.029l26.778-20.09v39.656a303.274 303.274 0 0 0-26.778-19.566zm-185.804 101.88c1.864.401 3.761.679 5.699.679 14.89 0 27.007-12.109 27.007-27.007v-5.699h81.766v49.059H167.256zm32.706-118.585 16.353 16.353v17.759l-16.353-16.353zm32.706 16.353 20.957-20.957 1.562 4.685a55.283 55.283 0 0 0 3.434 8.078l-25.952 25.952v-17.758zm81.766-175.093h8.177c7.817 0 14.971 3.729 19.542 9.779l-1.603 1.603c-5.004 5.012-13.254 6.353-19.591 3.181l-6.525-3.262zM71.819 132.91c4.726-14.685 16.844-26.198 32.003-29.983l11.251-2.813-17.481-26.23c11.374-4.268 24.162-4.513 35.666-.679l33.777 11.259-17.702-35.405 34.268 6.852V26.459l26.14 13.074 14.742-14.742 14.742 14.742 26.14-13.074v29.452l34.276-6.852-17.71 35.413 33.777-11.259c11.504-3.843 24.293-3.59 35.666.679l-17.49 26.23 11.251 2.813c15.159 3.786 27.277 15.298 32.003 29.983l-34.309-8.577 15.037 45.11c-.581.131-1.128.352-1.693.515-7.531-10.932-19.959-17.727-33.581-17.727h-8.177v-9.575c0-17.097-6.656-33.172-18.749-45.265l-11.562 11.562c7.8 7.809 12.551 17.841 13.688 28.675l-36.966-22.183-8.177 24.53-40.883-24.53-8.177 24.53-34.08-20.45h-2.265c-18.038 0-32.706 14.669-32.706 32.706h-8.177c-10.523 0-20.033 4.105-27.285 10.654l-8.25 2.061 16.353-40.883zm30.024 60.204c0-13.524 11.006-24.53 24.53-24.53h8.177v17.432l-11.815-7.882-9.076 13.606 20.891 13.925v11.979h-8.177c-13.532 0-24.53-11.006-24.53-24.53zm49.06 32.036v-72.91c0-8.324 6.247-15.208 14.301-16.222l47.473 28.479 8.177-24.53 40.883 24.53 8.177-24.53 28.168 16.901v20.564c-9.362 2.289-16.353 10.687-16.353 20.744v63.99c-7.236 6.697-16.059 11.194-25.879 12.829l-6.827 1.137v28.07l-24.53 24.53-24.53-24.53v-28.07l-6.827-1.137c-24.482-4.081-42.233-25.046-42.233-49.845zm32.706 67.432V419.58c0 5.871-4.775 10.654-10.654 10.654a10.64 10.64 0 0 1-5.912-1.791l-15.666-10.441c-.155-.106-.327-.172-.482-.27v-47.956a46.807 46.807 0 0 1 20.891-39.027l-9.068-13.606c-17.637 11.758-28.168 31.439-28.168 52.641v44.113h-8.177c-4.505 0-8.177-3.671-8.177-8.177v-32.297c0-39.574 27.539-72.861 65.413-80.841zM85.49 422.058c0-20.572 5.944-40.278 16.737-57.146a100.777 100.777 0 0 0-.384 8.495v32.297c0 10.646 6.86 19.64 16.353 23.025v66.917H85.49zm49.059 73.589v-65.413h3.23c1.619 0 3.189.474 4.538 1.374l8.594 5.732v41.954h147.178v-81.766H199.97v-29.321l24.53 24.53 43.933-43.933c10.033 10.024 23.794 16.018 38.667 16.018 2.461 0 4.906-.27 7.334-.597v131.422zm296.883-62.878c-8.912 8.912-20.76 13.818-33.369 13.818h-.008a47.026 47.026 0 0 1-16.566-3.009l-50.711-19.019v-65.282c2.862-1.374 5.617-2.96 8.201-4.816 14.718 9.141 28.651 19.607 41.472 31.251 2.011 11.709 9.354 21.84 20.262 27.293l7.318-14.628c-7.302-3.647-11.831-10.981-11.831-19.141v-76.704l-4.522-2.257c-7.302-3.647-11.831-10.981-11.831-19.141v-40.956a6.184 6.184 0 0 1 6.173-6.173c2.616 0 4.955 1.66 5.871 4.268l47.555 128.65a93.516 93.516 0 0 1 5.805 32.477c.008 12.609-4.906 24.457-13.819 33.369z" fill="#ffffff" data-original="#000000" class=""></path><path d="M314.434 217.644h16.353v81.766h-16.353z" fill="#ffffff" data-original="#000000" class=""></path></g></svg>