<svg xmlns="http://www.w3.org/2000/svg" version="1.1" xmlns:xlink="http://www.w3.org/1999/xlink" xmlns:svgjs="http://svgjs.com/svgjs" width="512" height="512" x="0" y="0" viewBox="0 0 512 512" style="enable-background:new 0 0 512 512" xml:space="preserve" class=""><g><path d="M480 278.111V232a8 8 0 0 0-8-8h-40.233c-3.616-125.386-49.345-157.333-51.329-158.656-.2-.131-.4-.254-.607-.367l-88-48A8 8 0 0 0 288 16H160a8 8 0 0 0-3.831.977l-88 48c-.208.113-.41.236-.607.367C65.457 66.747 16 101.313 16 240a8 8 0 0 0 8 8h64v192a8 8 0 0 0 8 8h96v40a8 8 0 0 0 8 8h128a8 8 0 0 0 7.761-6.06L344 456.985l8.239 32.955A8 8 0 0 0 360 496h128a8 8 0 0 0 8-8V312a7.994 7.994 0 0 0-.845-3.578ZM224 272v-32h16v32Zm32 0v-32h16v32Zm32-32h16v32h-16Zm32 0h16v32h-16ZM83.173 75.019l42.18-23.008c8.863 12.257 23.03 25.832 45.2 34.627l-73.683 39.3c-4.287-27.352-9.677-42.652-13.697-50.919Zm109.878 1.8c-27.474-6.09-43.9-19.952-53.511-32.546l17.86-9.744C165.567 45.118 185.508 64 224 64s58.433-18.882 66.6-29.471l17.864 9.744c-9.614 12.594-26.037 26.456-53.513 32.546A143.373 143.373 0 0 1 224 80a143.406 143.406 0 0 1-30.949-3.181ZM176.823 32h94.348c-8.554 7.558-23.422 16-47.171 16s-38.628-8.449-47.177-16Zm145.824 20.011 42.172 23c-2.431 4.98-5.361 12.51-8.228 23.659q-3.138 12.2-5.5 27.247l-73.648-39.279c22.175-8.796 36.342-22.37 45.204-34.627ZM352 240h16v32h-16Zm32 0h16v32h-16Zm32 0h16v32h-16Zm32 0h16v32h-16Zm-55.1-131.3c16.791 35.137 21.81 80.683 22.861 115.3h-55.653c1.164-87.631 11.858-124.971 17.815-139.071A107.02 107.02 0 0 1 392.9 108.7Zm-338.481 1.441C60.156 97.8 65.917 89.758 70.106 84.89a137.77 137.77 0 0 1 7.067 22.946c4.749 20.617 10.371 58.711 10.8 124.164H32.058c.918-62.694 12.542-100.747 22.361-121.859ZM104 432V240c0-41.25-1.965-72.9-4.824-97.158l93.36-49.794A161.89 161.89 0 0 0 224 96a161.8 161.8 0 0 0 31.464-2.953l93.321 49.775c-2.716 23.089-4.281 50.221-4.68 81.178H216a8 8 0 0 0-8 8v46.111l-15.155 30.311A7.994 7.994 0 0 0 192 312v120Zm104-118.111L220.944 288h20.926l-16.73 27.884A8 8 0 0 0 224 320v160h-16ZM351.761 422.06a8 8 0 0 0-15.522 0L321.754 480H240V322.216L260.53 288h166.94L448 322.216V480h-81.754ZM480 480h-16V320a8 8 0 0 0-1.14-4.116L446.13 288h20.926L480 313.889Z" fill="#ffffff" data-original="#000000" class=""></path></g></svg>